<svg width="270" height="270" viewBox="0 0 270 270" fill="none" xmlns="http://www.w3.org/2000/svg">
<g clip-path="url(#clip0_1_16)">
<g filter="url(#filter0_dddddd_1_16)">
<circle cx="135" cy="135" r="113" fill="#141415"/>
</g>
<path d="M50.3553 127.113C49.989 125.228 50.2782 123.586 51.2229 122.185C52.2015 120.734 53.6331 119.826 55.5178 119.459L63.8106 117.848L65.276 125.386L60.1872 126.376C59.0564 126.595 58.6131 127.334 58.8573 128.59L62.1423 145.49C62.4191 146.914 62.1864 148.176 61.444 149.277C60.7436 150.369 59.6604 151.058 58.1945 151.343L57.8176 151.416L58.0374 152.547L58.4144 152.473C59.8803 152.188 61.1425 152.421 62.2012 153.172C63.3017 153.914 63.9904 154.997 64.2672 156.421L67.5521 173.321C67.7964 174.577 68.4839 175.096 69.6147 174.876L74.7035 173.887L76.1689 181.426L67.8761 183.038C65.9914 183.404 64.3237 183.098 62.873 182.119C61.4723 181.175 60.5888 179.76 60.2224 177.875L56.5223 158.839C56.2862 157.625 55.6027 157.127 54.4719 157.347L50.514 158.116L48.7555 149.07L52.7134 148.3C53.8442 148.081 54.2916 147.363 54.0555 146.149L50.3553 127.113ZM102.776 134.397C102.434 132.638 101.446 131.243 99.8111 130.214C98.2184 129.176 96.1866 128.897 93.7155 129.377C91.6214 129.784 90.0525 130.546 89.0088 131.661C87.9571 132.735 87.5736 134.005 87.8586 135.471C88.0051 136.225 88.286 136.887 88.7013 137.458C89.1085 137.988 89.7169 138.435 90.5266 138.799C91.3701 139.113 92.4148 139.345 93.6608 139.494C94.9486 139.634 96.5466 139.693 98.4545 139.67C103.224 139.612 107.015 140.331 109.827 141.828C112.639 143.324 114.419 145.999 115.168 149.852L115.315 150.606C115.714 152.658 115.699 154.595 115.271 156.417C114.876 158.189 114.102 159.795 112.948 161.237C111.794 162.678 110.293 163.904 108.447 164.915C106.601 165.926 104.442 166.672 101.971 167.152C99.081 167.714 96.4488 167.813 94.0744 167.448C91.7336 167.034 89.6919 166.257 87.9492 165.118C86.1984 163.937 84.7588 162.457 83.6304 160.677C82.4939 158.855 81.7017 156.792 81.254 154.488L80.8876 152.604L89.1804 150.992L89.4735 152.499C89.9864 155.138 91.1514 157.107 92.9685 158.405C94.8194 159.654 97.3574 159.964 100.582 159.337C103.095 158.849 104.853 157.942 105.856 156.617C106.859 155.292 107.214 153.876 106.921 152.368C106.783 151.656 106.527 151.01 106.153 150.431C105.772 149.81 105.218 149.309 104.492 148.928C103.758 148.506 102.806 148.191 101.635 147.984C100.465 147.777 99.0136 147.689 97.2813 147.722C94.9883 147.776 92.8633 147.69 90.9065 147.461C88.9416 147.191 87.1703 146.688 85.5928 145.952C84.0572 145.207 82.7659 144.154 81.7189 142.793C80.6719 141.432 79.9368 139.662 79.5134 137.484L79.4401 137.107C79.0901 135.306 79.1245 133.583 79.5434 131.936C79.9961 130.24 80.7617 128.7 81.8403 127.317C82.9607 125.926 84.3813 124.737 86.102 123.751C87.8646 122.756 89.8977 122.035 92.2012 121.587C94.798 121.082 97.1748 121.011 99.3317 121.375C101.48 121.696 103.347 122.354 104.932 123.35C106.558 124.338 107.865 125.584 108.853 127.087C109.882 128.582 110.572 130.23 110.922 132.031L111.362 134.293L103.069 135.904L102.776 134.397ZM139.927 126.523L148.66 124.826L143.966 140.929L144.186 142.06L155.157 155.901L146.047 157.672L137.836 146.62L136.705 146.839L133.231 160.163L124.122 161.934L129.108 144.991L128.889 143.86L118.442 130.7L127.237 128.99L135.239 139.3L136.37 139.081L139.927 126.523ZM160.234 146.699L164.38 145.893L158.909 117.748L154.763 118.554L153.224 110.638L172.511 106.889C174.605 106.482 176.505 106.417 178.211 106.694C179.958 106.963 181.474 107.494 182.758 108.288C184.085 109.073 185.158 110.125 185.98 111.443C186.835 112.711 187.421 114.162 187.738 115.795L187.885 116.549C188.373 119.062 188.052 121.211 186.921 122.995C185.832 124.772 184.277 126.161 182.255 127.162L182.474 128.293C184.724 128.464 186.691 129.191 188.374 130.472C190.092 131.703 191.194 133.575 191.683 136.087L191.829 136.841C192.147 138.475 192.151 140.061 191.841 141.598C191.565 143.086 190.964 144.464 190.037 145.731C189.143 146.948 187.937 148.008 186.417 148.912C184.939 149.808 183.154 150.459 181.06 150.866L161.772 154.615L160.234 146.699ZM172.673 144.281L178.704 143.109C180.463 142.767 181.814 142.113 182.756 141.148C183.699 140.182 183.999 138.82 183.657 137.061L183.584 136.684C183.242 134.925 182.453 133.774 181.218 133.232C179.982 132.69 178.485 132.589 176.726 132.931L170.695 134.104L172.673 144.281ZM169.156 126.188L175.187 125.016C176.946 124.674 178.301 124.041 179.252 123.117C180.194 122.152 180.494 120.789 180.152 119.03L180.079 118.653C179.737 116.894 178.952 115.764 177.725 115.264C176.49 114.722 174.992 114.622 173.233 114.964L167.202 116.136L169.156 126.188ZM214.208 115.018C214.444 116.233 215.128 116.73 216.258 116.511L220.216 115.741L221.975 124.788L218.017 125.557C216.886 125.777 216.439 126.494 216.675 127.709L220.375 146.745C220.741 148.629 220.431 150.276 219.444 151.685C218.508 153.127 217.097 154.032 215.212 154.398L206.92 156.01L205.454 148.471L210.543 147.482C211.674 147.262 212.117 146.524 211.873 145.268L208.588 128.368C208.311 126.944 208.523 125.686 209.223 124.593C209.966 123.493 211.07 122.8 212.536 122.515L212.913 122.442L212.693 121.311L212.316 121.384C210.85 121.669 209.567 121.441 208.466 120.698C207.408 119.948 206.74 118.861 206.463 117.437L203.178 100.537C202.934 99.2804 202.246 98.7621 201.116 98.9819L196.027 99.971L194.561 92.4321L202.854 90.8202C204.739 90.4538 206.386 90.764 207.794 91.7506C209.237 92.6873 210.141 94.0979 210.508 95.9827L214.208 115.018Z" fill="#F3BE7C"/>
</g>
<defs>
<filter id="filter0_dddddd_1_16" x="-58" y="-62" width="386" height="386" filterUnits="userSpaceOnUse" color-interpolation-filters="sRGB">
<feFlood flood-opacity="0" result="BackgroundImageFix"/>
<feColorMatrix in="SourceAlpha" type="matrix" values="0 0 0 0 0 0 0 0 0 0 0 0 0 0 0 0 0 0 127 0" result="hardAlpha"/>
<feOffset dy="-0.11069"/>
<feGaussianBlur stdDeviation="1.1069"/>
<feColorMatrix type="matrix" values="0 0 0 0 0 0 0 0 0 0 0 0 0 0 0 0 0 0 0.07 0"/>
<feBlend mode="normal" in2="BackgroundImageFix" result="effect1_dropShadow_1_16"/>
<feColorMatrix in="SourceAlpha" type="matrix" values="0 0 0 0 0 0 0 0 0 0 0 0 0 0 0 0 0 0 127 0" result="hardAlpha"/>
<feOffset dy="-0.266004"/>
<feGaussianBlur stdDeviation="2.66004"/>
<feColorMatrix type="matrix" values="0 0 0 0 0 0 0 0 0 0 0 0 0 0 0 0 0 0 0.0503198 0"/>
<feBlend mode="normal" in2="effect1_dropShadow_1_16" result="effect2_dropShadow_1_16"/>
<feColorMatrix in="SourceAlpha" type="matrix" values="0 0 0 0 0 0 0 0 0 0 0 0 0 0 0 0 0 0 127 0" result="hardAlpha"/>
<feOffset dy="-0.500862"/>
<feGaussianBlur stdDeviation="5.00862"/>
<feColorMatrix type="matrix" values="0 0 0 0 0 0 0 0 0 0 0 0 0 0 0 0 0 0 0.0417275 0"/>
<feBlend mode="normal" in2="effect2_dropShadow_1_16" result="effect3_dropShadow_1_16"/>
<feColorMatrix in="SourceAlpha" type="matrix" values="0 0 0 0 0 0 0 0 0 0 0 0 0 0 0 0 0 0 127 0" result="hardAlpha"/>
<feOffset dy="-0.893452"/>
<feGaussianBlur stdDeviation="8.93452"/>
<feColorMatrix type="matrix" values="0 0 0 0 0 0 0 0 0 0 0 0 0 0 0 0 0 0 0.035 0"/>
<feBlend mode="normal" in2="effect3_dropShadow_1_16" result="effect4_dropShadow_1_16"/>
<feColorMatrix in="SourceAlpha" type="matrix" values="0 0 0 0 0 0 0 0 0 0 0 0 0 0 0 0 0 0 127 0" result="hardAlpha"/>
<feOffset dy="-1.6711"/>
<feGaussianBlur stdDeviation="16.711"/>
<feColorMatrix type="matrix" values="0 0 0 0 0 0 0 0 0 0 0 0 0 0 0 0 0 0 0.0282725 0"/>
<feBlend mode="normal" in2="effect4_dropShadow_1_16" result="effect5_dropShadow_1_16"/>
<feColorMatrix in="SourceAlpha" type="matrix" values="0 0 0 0 0 0 0 0 0 0 0 0 0 0 0 0 0 0 127 0" result="hardAlpha"/>
<feOffset dy="-4"/>
<feGaussianBlur stdDeviation="40"/>
<feColorMatrix type="matrix" values="0 0 0 0 0 0 0 0 0 0 0 0 0 0 0 0 0 0 0.0196802 0"/>
<feBlend mode="normal" in2="effect5_dropShadow_1_16" result="effect6_dropShadow_1_16"/>
<feBlend mode="normal" in="SourceGraphic" in2="effect6_dropShadow_1_16" result="shape"/>
</filter>
<clipPath id="clip0_1_16">
<rect width="270" height="270" fill="white"/>
</clipPath>
</defs>
</svg>
